<svg id="Layer_1" data-name="Layer 1" xmlns="http://www.w3.org/2000/svg" viewBox="0 0 283.46 283.46"><defs><style>.cls-1{fill:#adadad;}.cls-2{fill:#898989;}.cls-3{fill:#fff;}</style></defs><path class="cls-1" d="M144.11,181.34q0,10.46,0,20.91c-.49,0-1,.05-1.45.05H50.36a4.82,4.82,0,0,0-.66,0c-.76.12-1.07-.28-1.34-.94-1.82-4.58-3.68-9.15-5.53-13.72Q28.39,152,14,116.24A1.87,1.87,0,0,0,12.19,115,13.57,13.57,0,0,1,1.8,107.88a14.08,14.08,0,0,1,9.56-20.69A14,14,0,0,1,28.15,99.12a1.82,1.82,0,0,0,1.34,1.64q34.65,13.83,69.27,27.7c1.63.66,3.26,1.33,4.9,2,1.36.52,1.2.81,2-.68q5.67-11.06,11.36-22.09Q124.54,93,132.07,78.4c.22-.43.43-.87.63-1.28-.23-.43-.66-.49-1-.67-7.48-3.94-12.09-10.06-13.43-18.39a24.77,24.77,0,0,1,19.94-28.3,19.49,19.49,0,0,1,5.9-.38v2q0,53.82,0,107.64Z"/><path class="cls-2" d="M144.07,141c0-.66,0-1.32,0-2q0-53.82,0-107.64v-2a23.31,23.31,0,0,1,14.41,5.51c6.86,5.72,10,13.17,9,22-1,9.23-6,15.88-14.4,20l-1.21.55c-.07,0-.12.11-.19.17a3.06,3.06,0,0,0,.57,1.32L180,129.7a5.21,5.21,0,0,1,.24.47c.24.61.59.73,1.24.5,2.28-.8,4.59-1.53,6.89-2.3l66.35-22.13.37-.12c.92-.33.92-.33.65-1.28a14.17,14.17,0,1,1,16.34,9.73,12.66,12.66,0,0,1-4.47.17c-1.15-.16-1.16-.13-1.57,1q-7.95,22-15.89,44-7.49,20.69-15,41.35c-.57,1.57-.49,1.28-1.86,1.28H145.43c-.44,0-.88-.05-1.31-.08q0-10.45,0-20.91Z"/><path class="cls-1" d="M144.12,254.1c-.49,0-1,.05-1.45.05H58.06c-2.08,0-2.09,0-2.09-2.12V224.8c0-.27,0-.53,0-.8,0-1.12.2-1.3,1.29-1.35.31,0,.62,0,.93,0h84.34c.53,0,1.05,0,1.58,0Z"/><path class="cls-2" d="M144.12,254.1V222.7c.48,0,1-.07,1.45-.07H224c1.46,0,1.62.16,1.63,1.58v27.9c0,.35,0,.7,0,1a.89.89,0,0,1-1,1H145.56C145.08,254.17,144.6,254.12,144.12,254.1Z"/><path class="cls-3" d="M142.68,189c-2.57,0-5.14.07-7.7,0a4.53,4.53,0,1,1,0-9.06c4.33-.08,8.66,0,13,0,5.93,0,10-3.91,10-9.38s-4.11-9.11-10-9.14c-4.17,0-8.34,0-12.51,0-3.09,0-5.14-1.86-5.15-4.53s2-4.48,5.12-4.51c4.66,0,9.31-.06,14,0a18.34,18.34,0,0,1,.26,36.66C147.34,189,145,189,142.68,189Z"/><path class="cls-3" d="M140.65,138.41c2.56,0,5.13,0,7.7,0a4.53,4.53,0,1,1,.07,9c-4.41.09-8.82,0-13.23,0-5.66,0-9.76,3.86-9.81,9.07s4.09,9.4,9.72,9.47c4.25.06,8.5,0,12.75,0,3.15,0,5.13,1.79,5.15,4.49s-2,4.57-5.06,4.6c-4.65.05-9.31.09-14,0a18.38,18.38,0,0,1,.17-36.74C136.31,138.38,138.48,138.41,140.65,138.41Z"/></svg>